<svg xmlns="http://www.w3.org/2000/svg" width="23" height="23" viewBox="0 0 23 23">
  <path id="Forma_1" data-name="Forma 1" d="M1226.021,2672a2.023,2.023,0,0,1-2.021-2.021v-18.957a2.024,2.024,0,0,1,2.021-2.021h10.107v4.718a.655.655,0,0,0,.652.673h4.735v2.919l-4.563,4.544a2.687,2.687,0,0,0-.647,1.052l-.644,1.926a1.684,1.684,0,0,0,1.6,2.219l.326-.018,2.143-.716a2.669,2.669,0,0,0,1.048-.646l.741-.722v5.028a2.039,2.039,0,0,1-2.039,2.021Zm6.043-3.459a.674.674,0,0,0,.674.674h4.043a.674.674,0,1,0,0-1.347h-4.043A.673.673,0,0,0,1232.064,2668.539Zm-5.369-4.043a.673.673,0,0,0,.673.674h6.717a.674.674,0,1,0,0-1.347h-6.717A.672.672,0,0,0,1226.7,2664.5Zm0-2.695a.674.674,0,0,0,.673.674h6.717a.675.675,0,0,0,0-1.349h-6.717A.674.674,0,0,0,1226.7,2661.8Zm0-2.7a.673.673,0,0,0,.673.674h6.717a.674.674,0,1,0,0-1.347h-6.717A.673.673,0,0,0,1226.7,2659.1Zm0-2.695a.672.672,0,0,0,.673.673h9.412a.674.674,0,1,0,0-1.347h-9.412A.673.673,0,0,0,1226.7,2656.41Zm10.245,8.848.586-1.76,1.6,1.6-1.759.588a.341.341,0,0,1-.108.018A.337.337,0,0,1,1236.94,2665.258Zm1.382-2.869,4.438-4.438,1.913,1.913-4.437,4.439Zm5.391-5.39.979-.98a1.353,1.353,0,0,1,1.922,1.905h0l-.009.009-.979.978Zm2.9.924Zm-9.174-4.883V2649h.116a2.066,2.066,0,0,1,1.442.592l1.906,1.905a2.012,2.012,0,0,1,.592,1.429v.116Z" transform="translate(-1224 -2648.998)" fill="#111c39"/>
</svg>
