<svg xmlns="http://www.w3.org/2000/svg" width="32.001" height="24" viewBox="0 0 32.001 24">
  <path id="Forma_1" data-name="Forma 1" d="M831.7,2869.266c-1.468-.5-1.766-1.018-1.766-1.134v-.015l-.035-2.229a15.41,15.41,0,0,0,6.917,1.357,18.222,18.222,0,0,0,5.713-.81,7.666,7.666,0,0,0,1.475-.678v2.337c0,.108-.312.64-1.78,1.149a16.776,16.776,0,0,1-5.27.755A17.056,17.056,0,0,1,831.7,2869.266Zm-17.9-3.372a8.317,8.317,0,0,1,.457-10.857,6.536,6.536,0,0,1,4.646-2.006,6.448,6.448,0,0,1,2.05.339,7.511,7.511,0,0,1,4.722,5.792,9.053,9.053,0,0,1,.139,1.558,8.09,8.09,0,0,1-2.264,5.693,6.5,6.5,0,0,1-4.64,2A6.586,6.586,0,0,1,813.8,2865.894Zm.09-3.879a.736.736,0,0,0,.693.771h1.059a5.244,5.244,0,0,0,1.066,1.8,4.56,4.56,0,0,0,5.248,1.249.8.8,0,0,0,.4-1,.675.675,0,0,0-.894-.447v-.008a3.278,3.278,0,0,1-3.767-.9,2.529,2.529,0,0,1-.491-.7h3.559a.775.775,0,0,0,0-1.542H816.7a3.464,3.464,0,0,1-.021-.848h4.445a.776.776,0,0,0,0-1.543h-4.036a4.528,4.528,0,0,1,.6-.91,3.279,3.279,0,0,1,3.767-.887.67.67,0,0,0,.893-.439.8.8,0,0,0-.4-.994,4.574,4.574,0,0,0-5.248,1.241,5.394,5.394,0,0,0-1.143,2h-.983a.775.775,0,0,0,0,1.542h.692a5.674,5.674,0,0,0,.013.848h-.706A.737.737,0,0,0,813.885,2862.015Zm11.418,4.559a9.624,9.624,0,0,0,1.33-2.537c.588.054,1.211.093,1.849.1v.139l.034,2.614A19.66,19.66,0,0,1,825.3,2866.574Zm4.564-2.561-.014-.663-.028-1.766a7.6,7.6,0,0,0,1.58.671,20.59,20.59,0,0,0,11.057-.062,7.442,7.442,0,0,0,1.531-.678v1.974H844c0,.1-.063.216-.063.331s-.319.633-1.813,1.142a17.3,17.3,0,0,1-5.312.741C833.01,2865.7,830.435,2864.754,829.867,2864.013Zm-2.847-1.5a10.4,10.4,0,0,0,.159-1.8,7.957,7.957,0,0,0-.034-.91c.409.031.831.046,1.26.054,0,.015.007.039.007.055l.041,2.668Q827.717,2862.575,827.021,2862.518Zm4.771-1.75a3.6,3.6,0,0,1-1.987-1.119.623.623,0,0,0-.028-.131c.069-.216.575-.718,1.994-1.165a17.2,17.2,0,0,1,4.958-.655h.09a17.323,17.323,0,0,1,5.332.732c1.462.494,1.807.987,1.828,1.119-.006.115-.353.648-1.89,1.156a17.391,17.391,0,0,1-5.27.725A17.706,17.706,0,0,1,831.792,2860.767Zm-3.005-2.445c-.664,0-1.309-.031-1.9-.077a9.648,9.648,0,0,0-1.24-2.869,22.293,22.293,0,0,0,3.137.225,18.663,18.663,0,0,0,5.733-.81,8.486,8.486,0,0,0,1.524-.695v2.045c-2.978.093-6.053.786-7.187,2.182Zm-4.722-4.843c-.021-.008-.034-.008-.055-.016a7.989,7.989,0,0,0-2.168-1.364l-.049-2.175a7.252,7.252,0,0,0,1.5.639,20.579,20.579,0,0,0,11.218-.061,7.038,7.038,0,0,0,1.531-.679v1.975a.669.669,0,0,0-.09.37c0,.1-.326.632-1.835,1.141a17.69,17.69,0,0,1-5.332.749A17.869,17.869,0,0,1,824.064,2853.479Zm-.381-4.4c-1.489-.478-1.9-1.01-1.939-1.18,0-.014,0-.014-.007-.023.007-.107.326-.632,1.786-1.133a16.925,16.925,0,0,1,5.262-.748,17.529,17.529,0,0,1,5.333.748c1.5.51,1.828,1.034,1.828,1.142s-.326.64-1.835,1.141a17.7,17.7,0,0,1-5.325.748A17.175,17.175,0,0,1,823.684,2849.082Z" transform="translate(-811.999 -2845.998)" fill="#111c39"/>
</svg>
