<svg xmlns="http://www.w3.org/2000/svg" width="26.002" height="23.999" viewBox="0 0 26.002 23.999">
  <path id="Forma_1" data-name="Forma 1" d="M1235.323,2869.6l-2.641-1.5a1.489,1.489,0,0,1-.558-2.049,1.54,1.54,0,0,1,2.083-.549l1.321.75,3.05-5.2-1.321-.75a1.488,1.488,0,0,1-.558-2.048,1.542,1.542,0,0,1,2.083-.55l2.641,1.5a2.981,2.981,0,0,1,1.381,3.5,3.842,3.842,0,0,0-4.431,1.7,3.706,3.706,0,0,0,.718,4.624,3.085,3.085,0,0,1-3.768.573Zm-12.415-.573a3.705,3.705,0,0,0,.718-4.624,3.842,3.842,0,0,0-4.431-1.7,2.981,2.981,0,0,1,1.381-3.5l2.641-1.5a1.542,1.542,0,0,1,2.083.55,1.488,1.488,0,0,1-.558,2.048l-1.321.75,3.05,5.2,1.321-.75a1.54,1.54,0,0,1,2.083.549,1.489,1.489,0,0,1-.558,2.049l-2.641,1.5a3.085,3.085,0,0,1-3.768-.573Zm-4.615-1.624a2.247,2.247,0,0,1,.888-3.073,2.308,2.308,0,0,1,3.125.823,2.23,2.23,0,0,1-.837,3.073,2.373,2.373,0,0,1-3.176-.823Zm22.237.823a2.23,2.23,0,0,1-.837-3.073,2.308,2.308,0,0,1,3.125-.823,2.247,2.247,0,0,1,.888,3.073,2.373,2.373,0,0,1-3.176.823ZM1234.05,2855v-1.5h-6.1v1.5a1.525,1.525,0,0,1-3.05,0v-3a3.014,3.014,0,0,1,2.388-2.925,3.818,3.818,0,0,0,7.424,0A3.013,3.013,0,0,1,1237.1,2852v3a1.525,1.525,0,0,1-3.049,0Zm-5.341-6.748a2.29,2.29,0,1,1,2.291,2.25A2.27,2.27,0,0,1,1228.71,2848.25Z" transform="translate(-1217.999 -2846)" fill="#111c39"/>
</svg>
