<svg xmlns="http://www.w3.org/2000/svg" width="24" height="23" viewBox="0 0 24 23">
  <path id="Shape_1" data-name="Shape 1" d="M441.635,2667.113h4.174A11.52,11.52,0,0,1,438.3,2672,8.838,8.838,0,0,0,441.635,2667.113Zm-15.548,0h4.173A10.03,10.03,0,0,0,433.6,2672,12.184,12.184,0,0,1,426.087,2667.113Zm10.435,0h4.07c-.94,2.442-2.4,4.172-4.07,4.477Zm-5.113,0h4.069v4.477C433.809,2671.286,432.347,2669.556,431.409,2667.113Zm10.643-1.018a19.344,19.344,0,0,0,.73-5.088H448a12.019,12.019,0,0,1-1.462,5.088Zm-5.531,0v-5.088h5.217a19.263,19.263,0,0,1-.835,5.088Zm-5.426,0a19.263,19.263,0,0,1-.835-5.088h5.217v5.088Zm-5.635,0a12.031,12.031,0,0,1-1.461-5.088h5.217a24.949,24.949,0,0,0,.731,5.088Zm17.321-6.106a24.891,24.891,0,0,0-.73-5.088h4.486a12.019,12.019,0,0,1,1.462,5.088Zm-6.26,0V2654.9H440.9a19.263,19.263,0,0,1,.835,5.088Zm-6.261,0a19.263,19.263,0,0,1,.835-5.088h4.382v5.088Zm-6.26,0a12.031,12.031,0,0,1,1.461-5.088h4.487a24.949,24.949,0,0,0-.731,5.088Zm17.739-6.106A10.038,10.038,0,0,0,438.4,2649a12.19,12.19,0,0,1,7.513,4.885Zm-5.217,0V2649.4c1.669.306,3.13,2.036,4.07,4.478Zm-5.113,0c.939-2.442,2.4-4.172,4.069-4.478v4.478Zm-5.217,0A11.522,11.522,0,0,1,433.7,2649a8.837,8.837,0,0,0-3.34,4.885Z" transform="translate(-424 -2648.998)" fill="#fff"/>
</svg>
