<svg xmlns="http://www.w3.org/2000/svg" width="68" height="68" viewBox="0 0 68 68"><g><g><path fill="#28c8c6" d="M35.768 11.707l17.59 40.704-31.042-18.042 9.796-22.662c.611-.602 1.218-.853 1.82-.752.612-.11 1.224.14 1.836.752zm-2.678 29.93L14.52 52.41l7.464-17.23zM33.992 68c-9.332 0-17.417-3.352-24.028-9.963C3.352 51.425 0 43.335 0 33.993c0-9.333 3.352-17.418 9.964-24.03C16.575 3.354 24.66 0 33.992 0c9.343 0 17.433 3.352 24.044 9.964C64.648 16.575 68 24.66 68 33.993c0 9.342-3.352 17.432-9.964 24.043C51.425 64.648 43.336 68 33.992 68zm0-64.388c-8.457 0-15.482 2.913-21.475 8.905-5.992 5.993-8.906 13.018-8.906 21.476 0 8.467 2.914 15.497 8.906 21.49 5.993 5.992 13.018 8.906 21.475 8.906 8.468 0 15.498-2.914 21.49-8.906 5.993-5.993 8.907-13.023 8.907-21.49 0-8.458-2.914-15.483-8.906-21.476-5.993-5.992-13.022-8.905-21.49-8.905z"/></g></g></svg>